<?xml version="1.0" encoding="UTF-8" standalone="no"?>
<svg
   xmlns:dc="http://purl.org/dc/elements/1.1/"
   xmlns:cc="http://creativecommons.org/ns#"
   xmlns:rdf="http://www.w3.org/1999/02/22-rdf-syntax-ns#"
   xmlns:svg="http://www.w3.org/2000/svg"
   xmlns="http://www.w3.org/2000/svg"
   xmlns:sodipodi="http://sodipodi.sourceforge.net/DTD/sodipodi-0.dtd"
   xmlns:inkscape="http://www.inkscape.org/namespaces/inkscape"
   viewBox="0 0 32 32"
   width="32"
   height="32"
   id="svg3394"
   version="1.1"
   inkscape:version="0.91 r13725"
   sodipodi:docname="icon-github.svg">
  <metadata
     id="metadata3402">
    <rdf:RDF>
      <cc:Work
         rdf:about="">
        <dc:format>image/svg+xml</dc:format>
        <dc:type
           rdf:resource="http://purl.org/dc/dcmitype/StillImage" />
        <dc:title />
      </cc:Work>
    </rdf:RDF>
  </metadata>
  <defs
     id="defs3400" />
  <sodipodi:namedview
     pagecolor="#ffffff"
     bordercolor="#666666"
     borderopacity="1"
     objecttolerance="10"
     gridtolerance="10"
     guidetolerance="10"
     inkscape:pageopacity="0"
     inkscape:pageshadow="2"
     inkscape:window-width="1276"
     inkscape:window-height="755"
     id="namedview3398"
     showgrid="false"
     inkscape:zoom="12.219689"
     inkscape:cx="14.079557"
     inkscape:cy="16.198315"
     inkscape:window-x="4"
     inkscape:window-y="0"
     inkscape:window-maximized="1"
     inkscape:current-layer="svg3394" />
  <path
     d="M 15.999034,0.99999989 C 7.7167064,0.99999989 1,7.8852216 1,16.381752 c 0,6.794052 4.2967592,12.559484 10.257715,14.592944 0.749952,0.140716 1.024419,-0.332965 1.024419,-0.741242 0,-0.364675 -0.01353,-1.331856 -0.01933,-2.616147 C 8.0897494,28.546832 7.2102957,25.556101 7.2102957,25.556101 6.5279943,23.780292 5.544166,23.306612 5.544166,23.306612 c -1.36267,-0.953309 0.1024418,-0.935471 0.1024418,-0.935471 1.505702,0.109006 2.2981767,1.585543 2.2981767,1.585543 1.3375427,2.350568 3.5100835,1.670767 4.3644095,1.278344 0.137233,-0.994928 0.523806,-1.670766 0.952903,-2.05526 -3.3303271,-0.39044 -6.8307459,-1.708423 -6.8307459,-7.60268 0,-1.678694 0.5837252,-3.052171 1.5443592,-4.126377 -0.1546292,-0.390439 -0.6707042,-1.9541815 0.1468978,-4.0708813 0,0 1.2602281,-0.4142232 4.1247339,1.5776157 1.196444,-0.3428739 2.477933,-0.5133198 3.753624,-0.5192655 1.273759,0.00595 2.557181,0.1763916 3.755557,0.5172834 2.864507,-1.9898568 4.120869,-1.5776156 4.120869,-1.5776156 0.817602,2.1166998 0.30346,3.6804423 0.148831,4.0708813 0.960634,1.074206 1.542426,2.447683 1.542426,4.126378 0,5.90813 -3.506217,7.208275 -6.848141,7.588805 0.539269,0.475664 1.01862,1.413116 1.01862,2.848032 0,2.055262 -0.01933,3.714136 -0.01933,4.219528 0,0.412241 0.270601,0.889886 1.03215,0.739259 C 26.707107,28.933309 31,23.171841 31,16.379769 31,7.8872036 24.283294,0.99999989 15.999034,0.99999989 Z"
     id="path3396"
     inkscape:connector-curvature="0"
     style="fill:#000000" />
</svg>
